# xmcd
#
# Track frame offsets: 
#        150
#        22830
#        43020
#        63142
#        80752
#        104031
#        123156
#        139047
#        157359
#        168257
#
# Disc length: 2561 seconds
#
# Revision: 0
# Processed by: cddbd v1.5.2PL0 Copyright (c) Steve Scherf et al.
# Submitted via: ExactAudioCopyFreeDBPlugin 1.0
#
DISCID=8209ff0a
DTITLE=Lucero - All a Man Should Do
DYEAR=2015
DGENRE=Americana
TTITLE0=Baby Don't You Want Me
TTITLE1=Went Looking for Warren Zevon's Los Angeles
TTITLE2=The Man I Was
TTITLE3=Can't You Hear Them Howl
TTITLE4=I Woke Up in New Orleans
TTITLE5=Throwback No. 2
TTITLE6=They Called Her Killer
TTITLE7=Young Outlaws
TTITLE8=I'm in Love with a Girl
TTITLE9=My Girl and Me in '93
EXTD=
EXTT0=
EXTT1=
EXTT2=
EXTT3=
EXTT4=
EXTT5=
EXTT6=
EXTT7=
EXTT8=
EXTT9=
PLAYORDER=
